<svg xmlns="http://www.w3.org/2000/svg" viewBox="0 0 859.75 364.92"><defs><style>.cls-1{fill:#3eb1be;}</style></defs><g id="Layer_2" data-name="Layer 2"><g id="Layer_1-2" data-name="Layer 1"><path class="cls-1" d="M364.57,260.41c0-57.81-49.48-104.17-104.16-104.17H104.16a52.08,52.08,0,0,1,0-104.16H260.41a52.24,52.24,0,0,1,52.08,52.08h52.08C363,46.35,316.13,0,260.41,0H104.16C45.83,0,0,49,0,104.16,0,163,48.44,208.33,104.16,208.33H260.41a52.08,52.08,0,0,1,0,104.16H104.16a52.24,52.24,0,0,1-52.08-52.08H0c1.56,58.85,47.39,104.16,104.16,104.16H260.41C318.74,364.57,364.57,315.61,364.57,260.41Z"/><path class="cls-1" d="M562.48,208.33H666.64a52.08,52.08,0,1,1,0,104.16H510.4a52.23,52.23,0,0,1-52.08-52.08H406.23c1.57,58.85,47.4,104.16,104.17,104.16H666.64c58.33,0,104.16-49,104.16-104.16,0-31.25-12-57.29-35.41-78.13,23.44-20.83,35.41-46.87,35.41-78.12C770.8,46.35,721.33,0,666.64,0H510.4C452.07,0,406.23,49,406.23,104.16h52.09A52.23,52.23,0,0,1,510.4,52.08H666.64a52.08,52.08,0,1,1,0,104.16H562.48Z"/><rect class="cls-1" x="807.38" y="69.21" width="52.37" height="295.71" rx="11.91"/><rect class="cls-1" x="808.01" y="0.95" width="51.11" height="51.11" rx="11.34"/></g></g></svg>